<svg xmlns="http://www.w3.org/2000/svg" viewBox="0 0 256 256" role="img" aria-labelledby="title desc">
  <title id="title">Directional RF Fan icon</title>
  <desc id="desc">A directional ventilation fan with radio frequency signal waves.</desc>
  <defs>
    <linearGradient id="bg" x1="32" y1="32" x2="224" y2="224" gradientUnits="userSpaceOnUse">
      <stop offset="0" stop-color="#1fb6ff"/>
      <stop offset="0.52" stop-color="#19c37d"/>
      <stop offset="1" stop-color="#f4b942"/>
    </linearGradient>
    <linearGradient id="blade" x1="72" y1="72" x2="184" y2="184" gradientUnits="userSpaceOnUse">
      <stop offset="0" stop-color="#ffffff"/>
      <stop offset="1" stop-color="#dce7f3"/>
    </linearGradient>
    <filter id="shadow" x="-20%" y="-20%" width="140%" height="140%">
      <feDropShadow dx="0" dy="8" stdDeviation="10" flood-color="#10202a" flood-opacity="0.24"/>
    </filter>
  </defs>
  <rect width="256" height="256" rx="56" fill="#0d1b24"/>
  <circle cx="128" cy="128" r="104" fill="url(#bg)" opacity="0.16"/>
  <g filter="url(#shadow)">
    <circle cx="128" cy="128" r="62" fill="#122a35" stroke="url(#bg)" stroke-width="10"/>
    <path d="M128 123c18-33 43-41 65-25 0 27-17 48-53 54 16-18 15-29-12-29Z" fill="url(#blade)"/>
    <path d="M133 128c33 18 41 43 25 65-27 0-48-17-54-53 18 16 29 15 29-12Z" fill="url(#blade)"/>
    <path d="M128 133c-18 33-43 41-65 25 0-27 17-48 53-54-16 18-15 29 12 29Z" fill="url(#blade)"/>
    <path d="M123 128c-33-18-41-43-25-65 27 0 48 17 54 53-18-16-29-15-29 12Z" fill="url(#blade)"/>
    <circle cx="128" cy="128" r="17" fill="#0d1b24" stroke="#ffffff" stroke-width="7"/>
  </g>
  <path d="M55 83h49" fill="none" stroke="#f4b942" stroke-width="10" stroke-linecap="round"/>
  <path d="M72 66 55 83l17 17" fill="none" stroke="#f4b942" stroke-width="10" stroke-linecap="round" stroke-linejoin="round"/>
  <path d="M201 173h-49" fill="none" stroke="#1fb6ff" stroke-width="10" stroke-linecap="round"/>
  <path d="m184 156 17 17-17 17" fill="none" stroke="#1fb6ff" stroke-width="10" stroke-linecap="round" stroke-linejoin="round"/>
  <path d="M184 72c20 13 32 34 32 56s-12 43-32 56" fill="none" stroke="#19c37d" stroke-width="9" stroke-linecap="round"/>
  <path d="M199 48c29 18 47 48 47 80s-18 62-47 80" fill="none" stroke="#19c37d" stroke-width="7" stroke-linecap="round" opacity="0.68"/>
</svg>
